<?xml version="1.0" encoding="utf-8"?>
<!-- Generator: Adobe Illustrator 16.0.0, SVG Export Plug-In . SVG Version: 6.00 Build 0)  -->
<!DOCTYPE svg PUBLIC "-//W3C//DTD SVG 1.1//EN" "http://www.w3.org/Graphics/SVG/1.1/DTD/svg11.dtd">
<svg version="1.1" id="Layer_1" xmlns="http://www.w3.org/2000/svg" xmlns:xlink="http://www.w3.org/1999/xlink" x="0px" y="0px"
	 width="187px" height="255px" viewBox="85.5 17.5 187 255" enable-background="new 85.5 17.5 187 255" xml:space="preserve">
<g>
	<path fill="#2372E5" d="M181.676,212.564v35.85c0,1.59-1.287,2.881-2.879,2.881c-1.593,0-2.88-1.291-2.88-2.881v-35.85
		c0-1.59,1.288-2.881,2.88-2.881C180.389,209.684,181.676,210.972,181.676,212.564z M211.982,207.801
		c-1.593-0.222-3.021,0.907-3.223,2.485l-4.64,35.634c-0.208,1.576,0.904,3.021,2.479,3.229c0.13,0.018,0.254,0.023,0.377,0.023
		c1.424,0,2.662-1.057,2.852-2.508l4.64-35.635C214.672,209.451,213.563,208.005,211.982,207.801z M145.48,207.801
		c-1.581,0.204-2.69,1.65-2.485,3.229l4.634,35.635c0.19,1.451,1.428,2.508,2.851,2.508c0.124,0,0.248-0.006,0.377-0.023
		c1.575-0.204,2.69-1.65,2.479-3.229l-4.634-35.634C148.499,208.708,147.05,207.579,145.48,207.801z M251.493,189.201
		l-15.852,63.942c-0.017,1.091-0.536,2.128-1.48,2.759c-0.622,0.418-15.698,10.195-55.299,10.195
		c-39.594,0-54.674-9.775-55.293-10.192c-0.714-0.478-1.227-1.206-1.434-2.042l-15.993-64.492
		c-11.538-10.685-16.094-25.914-15.44-36.489c0.66-10.817,8.28-25.367,21.695-33.756c-1.936-4.484-2.762-10.256-2.94-11.641
		c-0.663-5.302-0.265-10.872,1.158-16.119c2.166-7.995,6.722-15.278,12.499-19.981c0.299-0.242,0.619-0.452,0.921-0.683
		c-5.215-9.383-3.441-21.306,4.634-28.74c0.642-0.59,1.316-1.129,2.007-1.639c-3.588-8.133-12.353-11.966-12.447-12.006
		c-1.754-0.746-2.572-2.776-1.829-4.533c0.749-1.754,2.773-2.581,4.533-1.826c0.504,0.213,11.08,4.844,15.866,15.137
		c2.497-0.878,5.135-1.359,7.837-1.359c6.569,0,12.894,2.768,17.352,7.595c2.29,2.479,3.949,5.389,4.988,8.534
		c2.958-1.993,5.625-4.401,7.825-7.54c2.013-2.886,3.234-7.531,2.897-11.039c-0.118-1.224,0.42-2.417,1.417-3.136
		c0.997-0.72,2.295-0.855,3.421-0.357c8.888,3.937,21.808,10.305,31.354,20.091c0.438,0.449,0.861,0.927,1.276,1.408l0.089-0.481
		l0.861,1.639c0.944,1.198,1.817,2.465,2.609,3.804c0.455,0.421,0.786,0.954,0.898,1.573c4.254,8.07,5.82,18.19,4.173,28.149
		c18.164,7.923,38.869,23.475,43.809,40.574C272.497,143.361,267.148,172.29,251.493,189.201z M126.674,58.582
		c-0.046,1.112,0.827,2.048,1.936,2.094c0.029,0,0.058,0,0.078,0c1.08,0,1.976-0.853,2.013-1.938
		c0.179-4.562,2.756-10.391,9.432-11.799c1.091-0.23,1.788-1.299,1.558-2.388c-0.23-1.092-1.288-1.789-2.391-1.558
		C131.938,44.545,126.985,50.662,126.674,58.582z M117.288,93.177c-0.271,0.991-0.478,1.999-0.66,3.009
		c0.383,0.092,0.743,0.205,1.103,0.323c0.153,0.049,0.308,0.089,0.449,0.141c0.444,0.161,0.861,0.343,1.27,0.536
		c0.058,0.029,0.118,0.052,0.179,0.081c1.913,0.942,3.476,2.195,4.934,3.375c0.607,0.495,1.215,0.968,1.834,1.431
		c0.884,0.66,1.806,1.288,2.869,1.823c0.135,0.066,0.271,0.106,0.4,0.164c0.277,0.121,0.556,0.228,0.838,0.308
		c0.196,0.058,0.4,0.101,0.596,0.138c0.293,0.055,0.584,0.086,0.884,0.104c0.225,0.011,0.449,0.02,0.674,0.008
		c0.354-0.014,0.703-0.052,1.057-0.118c0.176-0.032,0.349-0.066,0.519-0.109c0.426-0.104,0.85-0.23,1.262-0.395
		c0.118-0.046,0.23-0.106,0.348-0.155c0.354-0.156,0.703-0.329,1.051-0.521c0.129-0.072,0.265-0.141,0.395-0.219
		c0.406-0.245,0.81-0.513,1.198-0.798c0.124-0.086,0.242-0.178,0.36-0.271c0.343-0.268,0.686-0.544,1.014-0.838
		c0.066-0.06,0.141-0.115,0.202-0.173c0.395-0.357,0.766-0.726,1.126-1.103c0.061-0.063,0.13-0.13,0.185-0.193
		c0.777-0.832,1.475-1.693,2.047-2.523c0.579-0.818,1.198-1.688,1.858-2.575c0.184-0.245,0.383-0.475,0.567-0.717
		c0.443-0.582,0.89-1.158,1.379-1.737c0.417-0.495,0.873-0.95,1.316-1.417c0.308-0.32,0.59-0.654,0.91-0.962
		c0.473-0.446,0.991-0.841,1.498-1.25c0.349-0.282,0.663-0.599,1.028-0.861c0.141-0.098,0.288-0.164,0.426-0.256
		c0.395-0.262,0.798-0.519,1.244-0.757c0.314-0.17,0.631-0.311,0.945-0.455c0.288-0.13,0.573-0.256,0.878-0.372
		c0.389-0.147,0.78-0.276,1.175-0.389c0.259-0.072,0.519-0.135,0.786-0.196c0.444-0.101,0.899-0.184,1.356-0.242
		c0.259-0.035,0.53-0.055,0.798-0.075c0.484-0.035,0.974-0.049,1.469-0.035c0.288,0.006,0.573,0.023,0.873,0.049
		c0.518,0.043,1.034,0.115,1.563,0.208c0.303,0.055,0.608,0.109,0.916,0.178c0.596,0.139,1.204,0.323,1.806,0.527
		c0.265,0.089,0.519,0.161,0.786,0.262c0.916,0.348,1.84,0.749,2.773,1.241c0.444,0.239,0.884,0.443,1.322,0.616
		c0.011,0.003,0.023,0.006,0.029,0.012c2.177,0.864,4.253,0.962,6.068,0.273c0.089-0.038,0.185-0.083,0.276-0.124
		c0.265-0.115,0.524-0.236,0.772-0.383c0.366-0.222,0.731-0.47,1.086-0.781c1.682-1.475,2.857-3.513,4.096-5.67
		c0.512-0.884,1.033-1.78,1.604-2.67c0.502-0.783,1.028-1.561,1.631-2.313c0.99-1.241,2.205-2.405,3.576-3.442
		c1.352-1.025,2.846-1.921,4.421-2.632c0.006-0.002,0.012-0.008,0.022-0.011l0,0l0,0c0.23-0.104,0.461-0.156,0.691-0.242
		c2.561-0.973,5.17-1.077,7.5-1.132c1.074-0.023,2.113-0.049,3.104-0.155c0.979-0.109,1.907-0.302,2.745-0.663
		c0.426-0.181,0.809-0.397,1.157-0.642c0.034-0.023,0.066-0.055,0.101-0.078c0.289-0.21,0.551-0.441,0.793-0.691
		c0.123-0.129,0.236-0.276,0.348-0.417c0.136-0.161,0.266-0.323,0.389-0.501c0.142-0.213,0.271-0.441,0.4-0.674
		c0.066-0.126,0.142-0.253,0.207-0.389c0.142-0.288,0.271-0.59,0.395-0.907c0.035-0.101,0.072-0.199,0.113-0.302
		c0.129-0.363,0.259-0.743,0.371-1.146c0.018-0.061,0.035-0.124,0.053-0.187c0.111-0.392,0.213-0.806,0.308-1.233
		c-1.192-2.229-2.609-4.337-4.403-6.166c-7.218-7.401-16.768-12.761-24.587-16.488c-0.585,3.635-1.958,7.287-3.894,10.054
		c-7.742,11.059-19.524,14.803-30.926,18.42c-8.185,2.601-15.917,5.057-22.066,10.042C122.794,80.557,119.082,86.544,117.288,93.177
		z M97.6,153.302c-0.236,3.793,0.45,8.482,2.06,13.312c2.088,0.668,7.278,1.705,13.179-1.895c6.126-3.744,13.657-3.767,20.148-0.058
		c2.065,1.184,3.701,2.385,5.282,3.548c2.425,1.786,4.522,3.326,7.696,4.409c7.937,2.696,13.833-1.803,20.655-7.021
		c1.109-0.85,2.217-1.696,3.329-2.511c5.023-3.655,10.506-5.409,16.514-5.328c7.094,0.147,12.942,3.062,18.607,5.881
		c1.395,0.694,2.791,1.391,4.213,2.048c8.589,3.96,20.132,2.822,27.444-2.702c5.129-3.885,8.286-9.599,11.62-15.65
		c1.947-3.528,3.955-7.177,6.414-10.469c1.812-2.422,4.142-4.38,6.828-5.792c-0.178-0.896-0.383-1.771-0.625-2.598
		c-3.752-13.003-20.986-28.29-41.215-36.711c-35.521,25.902-77.513,30.992-100.829,31.559c-0.083,0.052-0.158,0.118-0.242,0.164
		C105.762,130.199,98.179,143.859,97.6,153.302z M242.455,196.923c-2.531,1.491-5.563,2.897-9.225,3.825
		c-8.34,2.107-15.096-0.162-18.943-2.402c-3.264,2.902-9.131,6.318-17.31,6.84c-8.22,0.461-14.553-2.275-18.141-4.771
		c-2.932,2.01-8.438,4.826-16.257,4.826c-0.625,0-1.262-0.018-1.907-0.055c-8.191-0.523-14.057-3.932-17.32-6.831
		c-3.848,2.243-10.593,4.507-18.945,2.39c-3.684-0.933-6.733-2.353-9.276-3.855l13.354,53.861c3.925,2.01,18.927,8.43,50.377,8.43
		c31.032,0,46.052-6.246,50.229-8.352L242.455,196.923z"/>
</g>
</svg>
