<?xml version="1.0" encoding="utf-8"?>
<!-- Generator: Adobe Illustrator 16.0.0, SVG Export Plug-In . SVG Version: 6.00 Build 0)  -->
<!DOCTYPE svg PUBLIC "-//W3C//DTD SVG 1.1//EN" "http://www.w3.org/Graphics/SVG/1.1/DTD/svg11.dtd">
<svg version="1.1" id="Layer_1" xmlns="http://www.w3.org/2000/svg" xmlns:xlink="http://www.w3.org/1999/xlink" x="0px" y="0px"
	 width="251px" height="248.5px" viewBox="54.5 0 251 248.5" enable-background="new 54.5 0 251 248.5" xml:space="preserve">
<path fill="#FFA300" d="M65.76,244.8c-3.36,0-3.36,0-3.36-3.696v-90.215C62.4,106.2,89.448,93.6,112.8,93.6H188.4v16.8h16.8V18
	c0-8.4,0-8.4,9.407-8.4H280.8V60H222v33.6h14.448c29.567,0,61.151,12.6,61.151,57.288v90.215c0,3.696,0,3.696-3.695,3.696H65.76z
	 M82.392,228h60.648c3.36,0,3.36,0,3.36-3.695v-73.417c0-26.544-12.264-40.488-34.272-40.488c-22.176,0-32.928,13.944-32.928,40.488
	v73.417C79.2,228,79.2,228,82.392,228z"/>
<rect x="-295" y="105" fill="#2372E5" width="54" height="37"/>
</svg>
