<svg xmlns="http://www.w3.org/2000/svg" xmlns:xlink="http://www.w3.org/1999/xlink" version="1.1" x="0px" y="0px" viewBox="0 0 24 30" style="enable-background:new 0 0 24 24;" xml:space="preserve"><g><path d="M12,0C5.373,0,0,5.373,0,12s5.373,12,12,12c0.914,0,1.801-0.111,2.656-0.305c-0.234-0.338-0.428-0.705-0.595-1.086   c-0.054-0.122-0.106-0.243-0.152-0.368c-0.052-0.142-0.097-0.285-0.138-0.431c-0.023-0.078-0.049-0.155-0.068-0.235   c-0.059-0.233-0.106-0.47-0.139-0.712l0,0C13.057,20.953,12.533,21,12,21c-4.274,0-7.856-2.998-8.768-7H17.5l0,0   c0.385-0.16,0.787-0.285,1.205-0.37c0.032-0.007,0.066-0.009,0.098-0.015c0.178-0.033,0.357-0.063,0.539-0.082   C19.559,13.512,19.777,13.5,20,13.5c0.304,0,0.6,0.029,0.893,0.069c0.1,0.014,0.197,0.033,0.295,0.052   c0.191,0.035,0.379,0.081,0.565,0.133c0.108,0.03,0.217,0.059,0.323,0.094c0.58,0.197,1.126,0.466,1.62,0.809   C23.889,13.801,24,12.914,24,12C24,5.373,18.627,0,12,0z M8,11c-1.106,0-2-0.896-2-2s0.894-2,2-2c1.104,0,2,0.896,2,2   S9.104,11,8,11z M16,11c-1.106,0-2-0.896-2-2s0.894-2,2-2c1.104,0,2,0.896,2,2S17.104,11,16,11z"/><polygon points="21,16 19,16 19,19 16,19 16,21 19,21 19,24 21,24 21,21 24,21 24,19 21,19  "/></g><text x="0" y="39" fill="#000000" font-size="5px" font-weight="bold" font-family="'Helvetica Neue', Helvetica, Arial-Unicode, Arial, Sans-serif">Created by Hea Poh Lin</text><text x="0" y="44" fill="#000000" font-size="5px" font-weight="bold" font-family="'Helvetica Neue', Helvetica, Arial-Unicode, Arial, Sans-serif">from the Noun Project</text></svg>