<?xml version="1.0" encoding="utf-8"?>
<!-- Generator: Adobe Illustrator 16.0.0, SVG Export Plug-In . SVG Version: 6.00 Build 0)  -->
<!DOCTYPE svg PUBLIC "-//W3C//DTD SVG 1.1//EN" "http://www.w3.org/Graphics/SVG/1.1/DTD/svg11.dtd">
<svg version="1.1" id="Layer_1" xmlns="http://www.w3.org/2000/svg" xmlns:xlink="http://www.w3.org/1999/xlink" x="0px" y="0px"
	 width="288px" height="288px" viewBox="7.75 3 288 288" enable-background="new 7.75 3 288 288" xml:space="preserve">
<path fill="#0EEF07" d="M151.75,8.441C75.229,8.441,13.191,70.479,13.191,147c0,76.521,62.038,138.559,138.559,138.559
	c76.521,0,138.559-62.038,138.559-138.559C290.309,70.479,228.271,8.441,151.75,8.441z M226.572,157.637h-64.186v64.186
	c0,5.875-4.763,10.636-10.637,10.636s-10.635-4.761-10.635-10.636v-64.186H76.928c-5.875,0-10.635-4.762-10.635-10.637
	c0-5.874,4.76-10.635,10.635-10.635h64.187V72.178c0-5.875,4.762-10.635,10.635-10.635s10.637,4.76,10.637,10.635v64.187h64.186
	c5.875,0,10.636,4.762,10.636,10.635C237.208,152.875,232.451,157.637,226.572,157.637z"/>
<text transform="matrix(1 0 0 1 36 331.1992)" font-family="'Helvetica-Bold'" font-size="14.4">Created by Linseed Studio</text>
<text transform="matrix(1 0 0 1 36 345.5996)" font-family="'Helvetica-Bold'" font-size="14.4">from the Noun Project</text>
</svg>
