<?xml version="1.0" encoding="utf-8"?>
<!-- Generator: Adobe Illustrator 16.0.0, SVG Export Plug-In . SVG Version: 6.00 Build 0)  -->
<!DOCTYPE svg PUBLIC "-//W3C//DTD SVG 1.1//EN" "http://www.w3.org/Graphics/SVG/1.1/DTD/svg11.dtd">
<svg version="1.1" id="Layer_1" xmlns="http://www.w3.org/2000/svg" xmlns:xlink="http://www.w3.org/1999/xlink" x="0px" y="0px"
	 width="294px" height="267px" viewBox="32.5 11.5 294 267" enable-background="new 32.5 11.5 294 267" xml:space="preserve">
<title>Artboard 24</title>
<path fill="#E82E0A" d="M304.762,159.84c20.773-20.773,20.774-54.453,0.002-75.227c-20.773-20.774-54.454-20.774-75.228-0.001
	c-20.774,20.773-20.774,54.453-0.001,75.227c0,0,0,0.001,0.001,0.001C250.322,180.58,283.975,180.58,304.762,159.84z
	 M247.162,114.653h12.498v-12.557c0-4.191,3.398-7.589,7.59-7.589s7.588,3.397,7.588,7.589v12.528h12.528
	c4.184,0,7.575,3.391,7.575,7.574l0,0c0,4.184-3.392,7.575-7.575,7.575h-12.644v12.528c0,4.191-3.396,7.589-7.588,7.589
	s-7.59-3.397-7.59-7.589v-12.499h-12.498c-4.191,0-7.59-3.398-7.59-7.589c0-4.191,3.398-7.589,7.59-7.589l0,0L247.162,114.653z
	 M39.802,257.414v-31.68c-0.071-38.879,23.289-73.97,59.184-88.906c-29.931-20.335-37.71-61.084-17.375-91.016
	s61.085-37.71,91.016-17.374c29.931,20.335,37.709,61.084,17.375,91.016c-4.645,6.835-10.54,12.73-17.375,17.374
	c35.867,14.911,59.232,49.947,59.212,88.791v31.68c0,7.46-6.047,13.508-13.507,13.508l0,0H53.28
	c-7.459,0.048-13.545-5.961-13.593-13.42c0-0.001,0-0.001,0-0.001L39.802,257.414z"/>
<rect x="-95.5" y="104.5" fill="#2372E5" width="54" height="37"/>
</svg>
